<svg xmlns="http://www.w3.org/2000/svg" width="144" height="42" viewBox="0 0 144 42" version="1.1"><path d="M 13 5.118 C 9.852 6.367, 4 11.958, 4 13.718 C 4 14.447, 5.061 15.526, 6.359 16.117 C 8.361 17.030, 9.109 16.800, 11.313 14.596 C 12.741 13.168, 14.717 11.993, 15.705 11.985 C 16.861 11.975, 17.087 11.707, 16.340 11.231 C 15.531 10.716, 15.928 9.622, 17.651 7.619 C 20.105 4.766, 20.152 4.756, 24.062 6.292 C 28.914 8.198, 29.330 7.454, 24.532 5.449 C 20.574 3.795, 16.621 3.682, 13 5.118 M 87.392 18 C 87.392 25.425, 87.549 28.462, 87.742 24.750 C 87.934 21.038, 87.934 14.963, 87.742 11.250 C 87.549 7.537, 87.392 10.575, 87.392 18 M 52.500 7.842 C 48.633 10.206, 47.123 12.084, 46.033 15.884 C 43.961 23.108, 49.684 31, 56.995 31 C 62.357 31, 64 30.159, 64 27.414 C 64 25.267, 63.771 25.147, 61.574 26.148 C 56.241 28.578, 51 25, 51 18.929 C 51 13.275, 53.842 10.707, 59.593 11.164 C 63.545 11.478, 64 11.292, 64 9.364 C 64 5.606, 57.553 4.752, 52.500 7.842 M 83.385 18 C 83.385 24.875, 83.545 27.688, 83.740 24.250 C 83.936 20.813, 83.936 15.188, 83.740 11.750 C 83.545 8.313, 83.385 11.125, 83.385 18 M 115.459 7.067 C 115.096 7.653, 115.014 8.348, 115.276 8.610 C 115.538 8.872, 116.019 8.392, 116.345 7.543 C 117.021 5.781, 116.445 5.471, 115.459 7.067 M 119.500 7 C 119.840 7.550, 120.343 8, 120.618 8 C 120.893 8, 120.840 7.550, 120.500 7 C 120.160 6.450, 119.657 6, 119.382 6 C 119.107 6, 119.160 6.450, 119.500 7 M 31.500 12 C 31.840 12.550, 32.343 13, 32.618 13 C 32.893 13, 32.840 12.550, 32.500 12 C 32.160 11.450, 31.657 11, 31.382 11 C 31.107 11, 31.160 11.450, 31.500 12 M 68.250 13.662 C 66.804 14.246, 66.537 18, 67.941 18 C 68.459 18, 69.203 17.480, 69.595 16.845 C 70.038 16.130, 69.870 15.962, 69.155 16.405 C 68.520 16.797, 68 16.710, 68 16.212 C 68 15.713, 69.013 14.817, 70.250 14.220 C 72.475 13.147, 70.732 12.661, 68.250 13.662 M 76 14 C 76.825 14.533, 77.950 14.969, 78.500 14.969 C 79.050 14.969, 78.825 14.533, 78 14 C 77.175 13.467, 76.050 13.031, 75.500 13.031 C 74.950 13.031, 75.175 13.467, 76 14 M 95.360 22 C 95.360 27.225, 95.529 29.363, 95.735 26.750 C 95.941 24.137, 95.941 19.862, 95.735 17.250 C 95.529 14.637, 95.360 16.775, 95.360 22 M 97 14 C 97 14.733, 97.300 15.033, 97.667 14.667 C 98.033 14.300, 98.033 13.700, 97.667 13.333 C 97.300 12.967, 97 13.267, 97 14 M 128.333 13.667 C 128.700 14.033, 129.300 14.033, 129.667 13.667 C 130.033 13.300, 129.733 13, 129 13 C 128.267 13, 127.967 13.300, 128.333 13.667 M 134.333 13.667 C 134.700 14.033, 135.300 14.033, 135.667 13.667 C 136.033 13.300, 135.733 13, 135 13 C 134.267 13, 133.967 13.300, 134.333 13.667 M 33.086 14.500 C 33.190 16.394, 34.856 19.584, 34.914 18 C 34.945 17.175, 34.533 15.825, 34 15 C 33.467 14.175, 33.055 13.950, 33.086 14.500 M 102 15 C 102 15.733, 102.300 16.033, 102.667 15.667 C 103.033 15.300, 103.033 14.700, 102.667 14.333 C 102.300 13.967, 102 14.267, 102 15 M 109 15 C 109 15.733, 109.300 16.033, 109.667 15.667 C 110.033 15.300, 110.033 14.700, 109.667 14.333 C 109.300 13.967, 109 14.267, 109 15 M 137.500 15 C 137.840 15.550, 138.343 16, 138.618 16 C 138.893 16, 138.840 15.550, 138.500 15 C 138.160 14.450, 137.657 14, 137.382 14 C 137.107 14, 137.160 14.450, 137.500 15 M 69.250 20.491 C 66.468 21.700, 66 22.409, 66 25.417 C 66 28.070, 66.551 29.196, 68.250 30.020 C 70.281 31.004, 70.329 30.972, 68.750 29.695 C 65.410 26.994, 67.099 21, 71.200 21 C 72.190 21, 73 20.550, 73 20 C 73 18.791, 73.230 18.761, 69.250 20.491 M 140 20 C 140 20.733, 140.300 21.033, 140.667 20.667 C 141.033 20.300, 141.033 19.700, 140.667 19.333 C 140.300 18.967, 140 19.267, 140 20 M 127 22 C 127 22.733, 127.300 23.033, 127.667 22.667 C 128.033 22.300, 128.033 21.700, 127.667 21.333 C 127.300 20.967, 127 21.267, 127 22 M 69.459 24.067 C 69.096 24.653, 69.014 25.348, 69.276 25.610 C 69.538 25.872, 70.019 25.392, 70.345 24.543 C 71.021 22.781, 70.445 22.471, 69.459 24.067 M 5.750 26.080 C 4.787 26.641, 4 27.697, 4 28.427 C 4 29.158, 4.788 30.351, 5.750 31.079 C 7.239 32.206, 7.313 32.194, 6.250 31.002 C 3.235 27.621, 6.858 24.680, 10.286 27.726 C 12.238 29.459, 12.252 29.448, 10.901 27.250 C 9.382 24.776, 8.379 24.549, 5.750 26.080 M 72.333 30.667 C 72.700 31.033, 73.300 31.033, 73.667 30.667 C 74.033 30.300, 73.733 30, 73 30 C 72.267 30, 71.967 30.300, 72.333 30.667 M 128.333 30.667 C 128.700 31.033, 129.300 31.033, 129.667 30.667 C 130.033 30.300, 129.733 30, 129 30 C 128.267 30, 127.967 30.300, 128.333 30.667" stroke="none" fill="#a194f4" fill-rule="evenodd"/><path d="M 17.276 7.932 L 15.053 10.753 18.858 11.361 C 23.444 12.095, 25.893 14.565, 26.648 19.221 C 28.200 28.783, 18.457 34.081, 10.636 27.928 C 8.246 26.049, 5 26.207, 5 28.203 C 5 30.527, 9.279 34.894, 13.023 36.392 C 24.800 41.105, 37.628 29.729, 34.045 17.750 C 32.230 11.680, 29.615 8.463, 24.993 6.614 C 19.888 4.571, 19.931 4.564, 17.276 7.932 M 84 18 C 84 28.889, 84.244 31, 85.500 31 C 86.756 31, 87 28.889, 87 18 C 87 7.111, 86.756 5, 85.500 5 C 84.244 5, 84 7.111, 84 18 M 116.336 7.567 C 115.426 9.939, 117.559 11.611, 119.470 10.025 C 120.654 9.042, 120.754 8.409, 119.890 7.367 C 118.392 5.563, 117.077 5.637, 116.336 7.567 M 70.250 14.220 C 67.348 15.620, 67.345 17.011, 70.245 16.453 C 73.304 15.864, 76 16.840, 76 18.536 C 76 19.371, 75.394 19.705, 74.500 19.362 C 73.675 19.045, 73 19.284, 73 19.893 C 73 20.502, 72.190 21, 71.200 21 C 68.664 21, 67 22.964, 67 25.959 C 67 29.360, 70.090 31.297, 73.467 30.013 C 74.958 29.446, 76 29.425, 76 29.963 C 76 30.465, 76.900 30.808, 78 30.725 C 79.782 30.591, 79.998 29.863, 79.985 24.037 C 79.968 16.906, 79.584 15.870, 76.316 14.150 C 73.731 12.789, 73.205 12.795, 70.250 14.220 M 92 22 C 92 29.333, 92.278 31, 93.500 31 C 94.722 31, 95 29.333, 95 22 C 95 14.667, 94.722 13, 93.500 13 C 92.278 13, 92 14.667, 92 22 M 98 13.843 C 98 14.307, 98.847 17.120, 99.883 20.093 C 104.709 33.952, 106.364 34.381, 110.844 22.936 C 114.519 13.545, 114.594 13, 112.198 13 C 110.923 13, 109.857 14.538, 108.558 18.250 C 107.547 21.138, 106.420 23.841, 106.052 24.258 C 105.684 24.675, 104.574 22.313, 103.584 19.008 C 102.208 14.415, 101.338 13, 99.892 13 C 98.851 13, 98 13.380, 98 13.843 M 116 22 C 116 30.333, 116.148 31, 118 31 C 119.852 31, 120 30.333, 120 22 C 120 13.667, 119.852 13, 118 13 C 116.148 13, 116 13.667, 116 22 M 127.894 14.114 C 123.096 15.875, 121.369 23.873, 124.956 27.722 C 129.427 32.521, 137.118 31.354, 139.562 25.506 C 140.849 22.427, 140.849 21.573, 139.562 18.494 C 137.535 13.643, 133.404 12.092, 127.894 14.114 M 128 19.500 C 126.630 23.102, 128.332 27, 131.275 27 C 134.318 27, 136 25.220, 136 22 C 136 16.772, 129.777 14.827, 128 19.500 M 72.582 22.868 C 69.293 23.581, 68.306 25.194, 70.217 26.735 C 72.123 28.272, 76 26.461, 76 24.032 C 76 22.915, 75.888 22.053, 75.750 22.118 C 75.612 22.183, 74.187 22.521, 72.582 22.868" stroke="none" fill="#8194f4" fill-rule="evenodd"/></svg>